<?xml version="1.0" encoding="UTF-8" standalone="no"?>
<!-- Created with Inkscape (http://www.inkscape.org/) -->

<svg
   xmlns:dc="http://purl.org/dc/elements/1.1/"
   xmlns:cc="http://creativecommons.org/ns#"
   xmlns:rdf="http://www.w3.org/1999/02/22-rdf-syntax-ns#"
   xmlns:svg="http://www.w3.org/2000/svg"
   xmlns="http://www.w3.org/2000/svg"
   xmlns:sodipodi="http://sodipodi.sourceforge.net/DTD/sodipodi-0.dtd"
   xmlns:inkscape="http://www.inkscape.org/namespaces/inkscape"
   width="75"
   height="380"
   viewBox="0 0 75 380"
   version="1.1"
   id="svg8"
   inkscape:version="0.92.3 (2405546, 2018-03-11)"
   sodipodi:docname="Debug.svg">
  <defs
     id="defs2">
    <clipPath
       clipPathUnits="userSpaceOnUse"
       id="clipPath1763">
      <path
         inkscape:connector-curvature="0"
         id="path1765"
         d="M 0,196.45831 H 23.8125 V 296.99999 H 0 Z"
         style="opacity:1;vector-effect:none;fill:#28220b;fill-opacity:1;fill-rule:evenodd;stroke:none;stroke-width:0.48607069;stroke-linecap:butt;stroke-linejoin:round;stroke-miterlimit:4;stroke-dasharray:none;stroke-dashoffset:0;stroke-opacity:1;paint-order:normal" />
    </clipPath>
    <clipPath
       clipPathUnits="userSpaceOnUse"
       id="clipPath3293">
      <path
         style="opacity:1;vector-effect:none;fill:#28220b;fill-opacity:1;fill-rule:evenodd;stroke:none;stroke-width:0.48607066;stroke-linecap:butt;stroke-linejoin:round;stroke-miterlimit:4;stroke-dasharray:none;stroke-dashoffset:0;stroke-opacity:1;paint-order:normal"
         d="M -1.5460537e-7,196.45831 H 19.843751 V 296.99999 H -1.5460537e-7 Z"
         id="path3295"
         inkscape:connector-curvature="0" />
    </clipPath>
  </defs>
  <sodipodi:namedview
     id="base"
     pagecolor="#ffffff"
     bordercolor="#666666"
     borderopacity="1.0"
     inkscape:pageopacity="0.0"
     inkscape:pageshadow="2"
     inkscape:zoom="3.9999998"
     inkscape:cx="105.74416"
     inkscape:cy="192.56973"
     inkscape:document-units="px"
     inkscape:current-layer="svg8"
     showgrid="false"
     units="px"
     inkscape:snap-bbox="true"
     inkscape:snap-page="true"
     inkscape:bbox-nodes="true"
     inkscape:snap-bbox-edge-midpoints="true"
     inkscape:window-width="2713"
     inkscape:window-height="1957"
     inkscape:window-x="633"
     inkscape:window-y="122"
     inkscape:window-maximized="0"
     showguides="true"
     inkscape:guide-bbox="true"
     inkscape:snap-global="false">
    <inkscape:grid
       type="xygrid"
       id="grid985" />
  </sodipodi:namedview>
  <metadata
     id="metadata5">
    <rdf:RDF>
      <cc:Work
         rdf:about="">
        <dc:format>image/svg+xml</dc:format>
        <dc:type
           rdf:resource="http://purl.org/dc/dcmitype/StillImage" />
        <dc:title></dc:title>
      </cc:Work>
    </rdf:RDF>
  </metadata>
  <path
     sodipodi:nodetypes="ccccc"
     style="opacity:1;fill:#202223;fill-opacity:1;stroke:none;stroke-width:1.99999988;stroke-linecap:round;stroke-linejoin:round;stroke-miterlimit:4;stroke-dasharray:none;stroke-dashoffset:0;stroke-opacity:0.58802819"
     d="M 0,0 H 75 V 380 H 0 Z"
     id="path1880"
     inkscape:connector-curvature="0"
     inkscape:export-xdpi="192"
     inkscape:export-ydpi="192" />
  <path
     style="color:#000000;font-style:normal;font-variant:normal;font-weight:normal;font-stretch:normal;font-size:medium;line-height:normal;font-family:sans-serif;font-variant-ligatures:normal;font-variant-position:normal;font-variant-caps:normal;font-variant-numeric:normal;font-variant-alternates:normal;font-feature-settings:normal;text-indent:0;text-align:start;text-decoration:none;text-decoration-line:none;text-decoration-style:solid;text-decoration-color:#000000;letter-spacing:normal;word-spacing:normal;text-transform:none;writing-mode:lr-tb;direction:ltr;text-orientation:mixed;dominant-baseline:auto;baseline-shift:baseline;text-anchor:start;white-space:normal;shape-padding:0;clip-rule:nonzero;display:inline;overflow:visible;visibility:visible;opacity:1;isolation:auto;mix-blend-mode:normal;color-interpolation:sRGB;color-interpolation-filters:linearRGB;solid-color:#000000;solid-opacity:1;vector-effect:none;fill:#eaeae3;fill-opacity:1;fill-rule:nonzero;stroke:none;stroke-width:1.86399996;stroke-linecap:butt;stroke-linejoin:miter;stroke-miterlimit:0;stroke-dasharray:none;stroke-dashoffset:0;stroke-opacity:1;color-rendering:auto;image-rendering:auto;shape-rendering:auto;text-rendering:auto;enable-background:accumulate"
     d="m 42.39648,353.14648 c -1.47909,1.66132 -4.45034,4.73431 -9.05664,5.60352 l -0.004,-0.0137 c -1.10325,0.32619 -2.1809,0.54505 -2.99609,0.61719 -0.36405,0.0322 -0.64618,0.0252 -0.86524,0.006 0.36165,-0.29969 1.07798,-0.7228 1.98243,-1.1543 1.91376,-0.91304 4.39078,-1.82527 5.84765,-3.06836 l -0.0117,-0.0137 c 0.019,-0.0189 0.0596,-0.0277 0.0781,-0.0469 l -1.27539,-1.35742 c -0.47423,0.40465 -1.74986,0.93284 -2.75976,1.42187 -0.86741,0.31698 -1.78876,0.63299 -2.83789,0.87305 -2.60646,0.59642 -5.53028,0.83833 -7.31055,0.47266 l -0.375,1.82617 c 1.49114,0.30628 3.30065,0.20811 5.14453,-0.0234 -0.24682,0.25743 -0.50604,0.51523 -0.58203,0.94141 -0.0959,0.53762 0.17128,1.13357 0.54687,1.48437 0.3885,0.36304 0.80124,0.44227 1.21875,0.49414 0.41752,0.0519 0.86726,0.0439 1.36329,0 0.89246,-0.079 1.93474,-0.29731 3.00781,-0.5957 v 0.004 c 0.90735,-0.16015 1.67836,-0.47557 2.47265,-0.76367 l 0.59375,1.21289 c 1.01516,-0.40119 2.38162,-0.77624 3.63672,-0.8711 1.25511,-0.0949 2.34443,0.11227 2.94922,0.61133 l 1.1875,-1.4375 c -1.13905,-0.93993 -2.64102,-1.11276 -4.09765,-1.02539 1.34364,-1.19486 2.54636,-2.50362 3.48828,-3.91602 0.01,-0.0111 0.0371,-0.032 0.0469,-0.043 l -0.006,-0.004 c 0.025,-0.0378 0.0652,-0.0696 0.0898,-0.10742 z m 3.43164,0.50196 c -1.73314,2.15165 -1.3884,4.67345 0.0625,6.07031 1.45091,1.39686 3.88423,1.80101 5.92774,0.49219 l -1.03711,-1.6211 c -1.31649,0.84318 -2.73905,0.52933 -3.55664,-0.25781 -0.551,-0.53047 -0.6638,-1.2861 -0.4375,-2.1543 0.51332,0.57234 1.0865,1.06405 1.76172,1.38868 1.19423,0.57416 2.59764,0.6971 4.10351,0.39257 l -0.38086,-1.88671 c -1.18912,0.24047 -2.1189,0.12789 -2.88867,-0.24219 -0.76976,-0.37009 -1.41993,-1.02056 -1.95508,-2.0293 z"
     id="path1884"
     inkscape:connector-curvature="0"
     inkscape:export-xdpi="192"
     inkscape:export-ydpi="192" />
  <g
     aria-label="Debug"
     style="font-style:normal;font-variant:normal;font-weight:normal;font-stretch:normal;font-size:19.72927284px;line-height:1.25;font-family:'Parkway Lush';-inkscape-font-specification:'Parkway Lush';letter-spacing:0px;word-spacing:0px;fill:#eaeae3;fill-opacity:1;stroke:none;stroke-width:0.94821429"
     id="text1888">
    <path
       d="m 27.712784,28.975465 q -0.197293,0.177564 -0.374856,0.355127 -0.177564,0.157834 -0.355127,0.315669 -0.118376,0.118375 0,0.157834 -0.157834,0.157834 -0.335398,0.315668 -0.157834,0.157834 -0.315668,0.295939 -0.512961,0.394586 -1.045652,0.769442 -0.53269,0.374856 -1.104839,0.690524 -0.631337,0.355127 -1.262673,0.631337 -0.631337,0.27621 -1.302132,0.453773 -0.236752,0.07892 -0.394586,0.197293 -0.138105,0.118376 -0.197293,0.374856 -0.03946,0.09865 -0.118375,0.177564 -0.07892,0.09865 -0.138105,0.197293 -0.03946,-0.09865 -0.118376,-0.118376 -0.05919,0 -0.157834,0 -0.07892,0.01973 -0.157834,0.01973 -0.05919,0 -0.09865,-0.07892 l -0.177564,0.177564 q -0.236751,0.217022 -0.355127,0.01973 -0.01973,-0.05919 -0.03946,-0.118376 0,-0.03946 -0.118376,0.01973 -0.03946,0.01973 -0.07892,-0.05919 -0.03946,-0.05919 -0.05919,-0.09865 -0.05919,-0.217022 -0.27621,-0.217022 -0.03946,0 -0.07892,-0.01973 -0.01973,-0.01973 -0.05919,-0.01973 -0.07892,-0.01973 -0.157834,-0.03946 -0.07892,-0.03946 -0.177563,0.118376 0,0.03946 -0.05919,0.03946 -0.335398,0.03946 -0.651066,0.05919 -0.295939,0.01973 -0.611608,0.03946 -0.09865,0 -0.197292,-0.01973 -0.118376,-0.01973 -0.217022,-0.05919 -0.03946,-0.03946 -0.07892,-0.09865 -0.05919,-0.05919 0.09865,-0.157834 -0.05919,-0.03946 -0.07892,-0.03946 -0.01973,-0.01973 -0.05919,-0.01973 -0.374856,-0.09865 -0.09865,-0.473502 0.138105,-0.157834 0.25648,-0.236752 0.118376,-0.09865 0.315669,-0.157834 0.03946,0.05919 0.03946,0.197293 0.532691,-0.09865 1.065381,-0.217022 0.53269,-0.138105 1.08511,-0.355127 0.118376,-0.03946 0.157834,-0.118376 0.03946,-0.09865 0.07892,-0.197292 0.118376,-0.532691 0.236751,-1.045652 0.138105,-0.53269 0.29594,-1.06538 0.355126,-1.302132 0.729983,-2.584535 0.374856,-1.282403 0.769441,-2.584535 0.07892,-0.236751 0.157834,-0.473502 0.09865,-0.256481 0.197293,-0.512962 l 0.138105,-0.414314 q -1.08511,0.453773 -2.071574,1.06538 -0.966734,0.611608 -1.913739,1.321862 0.03946,-0.09865 0.03946,-0.157834 0.01973,-0.05919 0.05919,-0.157835 -0.217022,0.217022 -0.295939,0.236752 -0.05919,0.01973 -0.25648,-0.05919 -0.217022,0.177563 -0.256481,0.177563 -0.05919,0 -0.177563,-0.177563 -0.05919,-0.05919 -0.03946,-0.05919 -0.25648,-0.03946 -0.197293,-0.197293 0.03946,-0.157834 0.09865,-0.315668 0.118375,-0.27621 0.295939,-0.512961 0.177563,-0.236751 0.394585,-0.453773 0.55242,-0.572149 1.164027,-1.006193 0.631337,-0.453774 1.321862,-0.848359 0.966734,-0.532691 1.933468,-0.927276 0.986464,-0.414315 2.012386,-0.651066 0.789171,-0.197293 1.558613,-0.315668 0.789171,-0.118376 1.538883,-0.01973 1.065381,0.138105 1.933469,0.532691 0.887817,0.394585 1.499425,1.203485 0.236751,0.335398 0.335397,0.729984 0.09865,0.374856 0,0.848358 -0.197292,1.262674 -0.966734,2.466159 -0.55242,0.868088 -1.183757,1.696718 -0.611607,0.8089 -1.34159,1.558612 z M 17.433833,24.950694 q 0.25648,-0.177564 0.394585,-0.394586 0.157834,-0.236751 0.295939,-0.453773 -0.217022,0.157834 -0.414314,0.355127 -0.177564,0.197293 -0.27621,0.493232 z m 10.417056,2.623993 q 0,0.01973 0.03946,0.05919 0.05919,-0.07892 0.138105,-0.138105 -0.118375,0.05919 -0.177563,0.07892 z m 2.189949,-1.913739 q -0.493232,0.631336 -0.966734,1.242944 -0.453774,0.611607 -0.907547,1.242944 0.55242,-0.572149 1.045652,-1.183756 0.493232,-0.611608 0.828629,-1.302132 z m -0.749712,-0.05919 q -0.01973,0.03946 -0.03946,0.05919 -0.01973,0.01973 -0.03946,0.05919 -0.256481,0.374857 -0.512961,0.729983 -0.236752,0.355127 -0.493232,0.729984 -0.03946,0.07892 -0.07892,0.138104 -0.03946,0.05919 -0.07892,0.138105 0.197292,-0.217022 0.394585,-0.434044 0.197293,-0.236751 0.374856,-0.453773 0.197293,-0.25648 0.315669,-0.414315 0.118375,-0.177563 0.177563,-0.276209 0.05919,-0.09865 0.07892,-0.157835 0.01973,-0.07892 0.01973,-0.157834 -0.03946,0.01973 -0.05919,0.01973 -0.01973,0 -0.05919,0.01973 z m -6.924975,5.14934 q 2.17022,-1.164027 3.965584,-2.99885 0.651066,-0.690524 1.242944,-1.400778 0.591878,-0.729983 1.006193,-1.558612 0.217022,-0.434044 0.374856,-0.868088 0.157834,-0.434044 0.197293,-0.887818 0.157834,-1.223215 -0.907547,-1.538883 -0.118375,-0.03946 -0.25648,-0.05919 -0.138105,-0.01973 -0.27621,-0.03946 -0.453773,-0.03946 -0.947005,0.05919 -0.473503,0.07892 -0.947005,0.197293 -0.236752,0.05919 -0.374856,0.09865 -0.138105,0.03946 -0.217022,0.118376 -0.07892,0.07892 -0.138105,0.217022 -0.05919,0.118376 -0.157835,0.355127 -0.118375,0.335398 -0.25648,0.651066 -0.118376,0.295939 -0.256481,0.611608 0.03946,-0.434044 0.236752,-0.848359 0.197292,-0.414315 0.295939,-0.82863 -0.986464,2.229408 -1.834823,4.458816 -0.828629,2.209679 -1.459966,4.478545 h 0.07892 q 0.05919,-0.138105 0.09865,-0.27621 0.05919,-0.138105 0.09865,-0.295939 h 0.01973 q -0.05919,0.315668 -0.138105,0.591878 0.138105,-0.01973 0.197293,-0.05919 0.197293,-0.07892 0.355127,-0.177563 z m 5.030965,-3.294789 q 0.315668,-0.394585 0.611607,-0.789171 0.295939,-0.414314 0.631337,-0.8089 0.157834,-0.217022 0.236751,-0.374856 0.07892,-0.177563 -0.01973,-0.394585 -0.394586,0.552419 -0.769442,1.104839 -0.374856,0.55242 -0.8089,1.065381 -0.434044,0.53269 -0.927276,1.025922 -0.473502,0.473502 -0.947005,0.986463 0.03946,-0.01973 0.07892,-0.03946 0.03946,-0.01973 0.07892,-0.05919 1.025922,-0.769442 1.834823,-1.716447 z m 0.473502,1.558613 q -0.03946,0.03946 -0.05919,0.07892 l -0.01973,-0.01973 q 0.01973,-0.01973 0.03946,-0.01973 0.01973,-0.01973 0.03946,-0.03946 z m 0.749712,-0.868088 q -0.03946,0.157834 -0.09865,0.217022 -0.157834,0.177563 -0.335398,0.335398 -0.157834,0.157834 -0.315668,0.315668 l 0.355127,-0.414315 q 0.09865,-0.118375 0.197293,-0.217022 0.09865,-0.118375 0.197292,-0.236751 z m 0.01973,-0.01973 -0.01973,0.01973 v -0.01973 z m -1.63753,1.696717 -0.01973,-0.01973 h 0.01973 z m 0.8089,-0.729983 H 27.7917 v -0.01973 z m -0.01973,0 q -0.157834,0.217022 -0.355127,0.394585 -0.177563,0.177564 -0.434044,0.315669 0.138105,-0.177564 0.374856,-0.394586 0.236752,-0.217022 0.414315,-0.315668 z m 1.854552,-2.130761 v -0.01973 z m 0,0 q -0.197293,0.394585 -0.493232,0.611607 0.09865,-0.157834 0.197293,-0.315668 0.09865,-0.157835 0.295939,-0.295939 z m -0.493232,0.611607 q -0.01973,0.01973 -0.03946,0.01973 z m -0.03946,0.05919 q -0.09865,0.157834 -0.197292,0.295939 -0.07892,0.118376 -0.27621,0.197293 0.118375,-0.138105 0.236751,-0.256481 0.118376,-0.118376 0.236751,-0.236751 z m 0,0 v -0.03946 z m -0.473502,0.493232 h -0.01973 z m 1.006193,-1.164027 v -0.01973 z m 0.03946,-0.138105 q 0.05919,-0.05919 0.138105,-0.07892 -0.03946,0.03946 -0.09865,0.09865 -0.03946,0.05919 -0.07892,0.09865 0.01973,-0.03946 0.01973,-0.05919 0,-0.01973 0.01973,-0.05919 z M 22.9383,27.278748 q 0.197293,-0.512961 0.374856,-1.006193 0.197293,-0.493232 0.414315,-1.006193 0.03946,0 0.07892,0.01973 -0.217022,0.512961 -0.414315,1.006193 -0.197293,0.493232 -0.394585,1.006193 -0.01973,-0.01973 -0.05919,-0.01973 z m -0.473503,1.34159 q 0.09865,-0.25648 0.177564,-0.512961 0.09865,-0.25648 0.177563,-0.512961 h 0.07892 q -0.09865,0.236752 -0.177563,0.493232 -0.07892,0.236751 -0.157834,0.473503 -0.01973,0.01973 -0.09865,0.05919 z m -0.07892,0.453774 q -0.03946,0.236751 -0.157834,0.493232 0.05919,-0.236752 0.118376,-0.473503 0.05919,-0.236751 0.118375,-0.453773 -0.01973,0.09865 -0.03946,0.217022 0,0.118375 -0.03946,0.217022 z m 0.07892,-0.434044 v -0.01973 z m 1.381049,-3.630186 q 0.03946,-0.118376 0.05919,-0.197293 0.01973,-0.09865 0.03946,-0.177564 0.09865,0.118376 -0.09865,0.374857 z m 0.217022,-0.651066 q 0.05919,-0.09865 0.09865,-0.197293 h 0.05919 q -0.03946,0.05919 -0.05919,0.118375 0,0.03946 -0.03946,0.07892 z m -2.012385,5.642572 q 0.01973,-0.01973 0.01973,-0.01973 0.01973,0 0.03946,-0.01973 v 0.05919 q -0.01973,0 -0.01973,0.01973 0,0 -0.01973,0 -0.05919,0 -0.01973,-0.03946 z"
       style="font-style:normal;font-variant:normal;font-weight:normal;font-stretch:normal;font-size:19.72927284px;font-family:'Parkway Lush';-inkscape-font-specification:'Parkway Lush';text-align:center;text-anchor:middle;fill:#eaeae3;fill-opacity:1;stroke-width:0.94821429"
       id="path2097"
       inkscape:connector-curvature="0" />
    <path
       d="m 36.452544,27.791709 q -0.01973,0.01973 0.01973,0.01973 -0.03946,0.09865 -0.07892,0.177564 -0.01973,0.07892 -0.05919,0.157834 -0.05919,0.118376 -0.118375,0.236751 -0.03946,0.118376 -0.09865,0.217022 -0.09865,0.157834 -0.197293,0.256481 -0.414314,0.414314 -0.868088,0.789171 -0.434044,0.374856 -0.947005,0.670795 -0.118375,0.07892 -0.236751,0.138105 -0.118376,0.05919 -0.236751,0.07892 -0.335398,0.05919 -0.670795,0.138105 -0.335398,0.05919 -0.651066,0.03946 -0.591879,-0.03946 -0.966735,-0.335397 -0.355127,-0.315669 -0.552419,-0.82863 -0.118376,-0.315668 -0.138105,-0.651066 -0.01973,-0.355127 0.01973,-0.710254 0.138105,-0.828629 0.453773,-1.6178 0.315669,-0.789171 0.848359,-1.538883 0.315668,-0.434044 0.690524,-0.769442 0.394586,-0.335397 0.887818,-0.552419 0.591878,-0.256481 1.08511,-0.138105 0.729983,0.118375 1.34159,0.572149 0.03946,0.03946 0.09865,0.09865 0.07892,0.03946 0.118375,0.09865 0.355127,0.355127 0.01973,0.927276 -0.217022,0.374856 -0.473503,0.749712 -0.256481,0.355127 -0.572149,0.690525 -0.118376,0.118376 -0.217022,0.256481 -0.09865,0.118375 -0.217022,0.25648 0,0.177564 -0.157834,0.177564 -0.09865,0.09865 -0.197293,0.217022 -0.07892,0.09865 -0.177563,0.197292 -0.27621,0.27621 -0.572149,0.532691 -0.27621,0.25648 -0.572149,0.53269 -0.05919,0.03946 -0.138105,0.09865 -0.05919,0.03946 -0.138105,0.07892 -0.05919,0.01973 -0.217022,0.01973 -0.03946,0.118375 -0.03946,0.217022 0,0.335397 0.177563,0.434044 0.09865,0.05919 0.197293,0 0.118375,-0.05919 0.217022,-0.118376 1.006193,-0.512961 1.89401,-1.400778 0.09865,-0.09865 0.157834,-0.197293 0.07892,-0.09865 0.157834,-0.197293 0.07892,-0.07892 0.138105,-0.138105 0.05919,-0.05919 0.138105,-0.09865 -0.03946,0.177563 -0.138105,0.355127 -0.07892,0.157834 -0.118375,0.335398 0.09865,-0.09865 0.157834,-0.177564 0.05919,-0.09865 0.157834,-0.197293 0.09865,-0.07892 0.138105,-0.177563 0.03946,-0.09865 0.177563,-0.157834 0.05919,0.09865 -0.01973,0.197292 -0.07892,0.09865 -0.03946,0.217022 0.07892,-0.09865 0.138105,-0.177563 0.07892,-0.09865 0.138105,-0.177563 0.118376,0.07892 0.118376,0.138104 0.01973,0.05919 -0.07892,0.335398 0.03946,-0.07892 0.09865,-0.138105 0.05919,-0.07892 0.118376,-0.157834 z m -1.36132,-1.242944 q 0.05919,-0.07892 0.138105,-0.118376 0.07892,-0.05919 0.07892,-0.157834 -0.177563,0.138105 -0.217022,0.27621 z m 0.749712,-1.006193 q -0.118375,0.177563 -0.25648,0.355127 -0.118376,0.177563 -0.236751,0.355127 0.217022,-0.138105 0.315668,-0.315669 0.118376,-0.197292 0.236751,-0.374856 -0.01973,-0.01973 -0.05919,-0.01973 z m -0.414314,-0.07892 q -0.09865,0.118375 -0.177564,0.236751 -0.05919,0.118376 -0.138105,0.236751 0.03946,0 0.05919,0.01973 0.07892,-0.118376 0.138105,-0.236752 0.07892,-0.118375 0.177563,-0.236751 -0.01973,0 -0.03946,0 0,-0.01973 -0.01973,-0.01973 z m -3.452623,0.315668 q 0.572149,-0.690524 1.08511,-1.262673 -0.03946,-0.03946 -0.03946,-0.03946 -0.315668,0.157834 -0.552419,0.453773 -0.217022,0.29594 -0.493232,0.848359 z m 0.55242,0.138105 q 0.157834,-0.217022 0.276209,-0.414315 0.138105,-0.197292 0.27621,-0.414314 -0.03946,0 -0.03946,-0.01973 -0.355127,0.355127 -0.572149,0.82863 0.01973,0.01973 0.05919,0.01973 z m 1.124568,-0.848359 q -0.25648,0.217022 -0.414315,0.493232 -0.157834,0.256481 -0.25648,0.532691 0.157834,-0.256481 0.335397,-0.512962 0.177564,-0.25648 0.335398,-0.512961 z m 0.335398,0 q -0.197293,0.118376 -0.434044,0.414315 -0.217022,0.27621 -0.414315,0.631337 -0.177563,0.335397 -0.335398,0.710254 -0.138105,0.355127 -0.157834,0.631336 0.217022,-0.631336 0.532691,-1.223215 0.315668,-0.591878 0.8089,-1.164027 z m -1.262674,2.485889 q -0.03946,0.03946 -0.03946,0.09865 0.01973,0.05919 0,0.157834 0.138105,-0.157834 0.236751,-0.27621 0.09865,-0.118375 0.197293,-0.236751 0.394585,-0.434044 0.749712,-0.868088 0.374856,-0.453773 0.670795,-0.947005 0.177564,-0.25648 0.315669,-0.631337 0.05919,-0.335397 -0.27621,-0.157834 -0.07892,0.03946 -0.118376,0.07892 -0.453773,0.315669 -0.769441,0.8089 -0.335398,0.473503 -0.572149,0.966735 -0.236752,0.493232 -0.394586,1.006193 z m -0.138105,0.828629 q 0.03946,-0.03946 0.05919,-0.05919 0.03946,-0.03946 0.05919,-0.07892 0.315668,-0.335397 0.611607,-0.651066 0.315669,-0.335397 0.591879,-0.670795 0.236751,-0.27621 0.473502,-0.572149 0.236751,-0.315668 0.453773,-0.611607 0.05919,-0.07892 0.09865,-0.157835 0.05919,-0.07892 0.01973,-0.177563 -0.118376,0.03946 -0.157834,0.118376 -0.03946,0.07892 -0.09865,0.157834 -0.157835,0.236751 -0.315669,0.473502 -0.157834,0.217022 -0.335397,0.434044 -0.335398,0.394586 -0.670796,0.769442 -0.335397,0.374856 -0.670795,0.769442 -0.03946,0.05919 -0.09865,0.118375 -0.03946,0.03946 -0.01973,0.138105 z m 3.235601,-2.209678 q -0.01973,0 -0.03946,0 0,-0.01973 -0.01973,-0.01973 0.138105,-0.217022 0.27621,-0.434044 0.138105,-0.236751 0.295939,-0.473502 0.01973,0.01973 0.03946,0.01973 -0.138105,0.236751 -0.27621,0.473503 -0.138105,0.217022 -0.27621,0.434044 z"
       style="font-style:normal;font-variant:normal;font-weight:normal;font-stretch:normal;font-size:19.72927284px;font-family:'Parkway Lush';-inkscape-font-specification:'Parkway Lush';text-align:center;text-anchor:middle;fill:#eaeae3;fill-opacity:1;stroke-width:0.94821429"
       id="path2099"
       inkscape:connector-curvature="0" />
    <path
       d="m 42.599137,28.916278 q -0.01973,0.03946 -0.03946,0.07892 -0.01973,0.01973 -0.01973,0.05919 0.453773,-0.394585 0.8089,-0.868088 0.355127,-0.473502 0.690525,-0.966734 -0.05919,0.138105 -0.138105,0.27621 -0.27621,0.473502 -0.631337,0.907546 -0.355127,0.414315 -0.769442,0.808901 -0.236751,0.25648 -0.512961,0.453773 -0.27621,0.197293 -0.572149,0.355127 -0.217022,0.138105 -0.453773,0.197293 -0.217022,0.03946 -0.453773,0.03946 -0.217022,0 -0.434044,0 -0.197293,0 -0.414315,-0.01973 -0.848359,-0.05919 -1.381049,-0.512961 -0.07892,-0.05919 -0.157834,-0.118376 -0.05919,-0.05919 -0.157835,-0.118376 -0.03946,0.118376 -0.138104,0.236752 -0.09865,0.09865 0,0.217022 v 0.03946 q -0.177564,0.355127 -0.414315,0.710254 0.03946,-0.07892 0.05919,-0.138105 0.01973,-0.07892 0.05919,-0.157834 0,-0.01973 -0.01973,-0.01973 l -0.355127,0.591878 h -0.01973 q 0.03946,-0.07892 0.07892,-0.236751 -0.09865,0.05919 -0.217022,0.118375 -0.09865,0.03946 -0.217022,0.09865 0.03946,-0.118376 0.05919,-0.197293 0.01973,-0.07892 0.05919,-0.157834 0,-0.01973 -0.01973,-0.01973 -0.03946,0.03946 -0.05919,0.09865 -0.01973,0.05919 -0.05919,0.09865 -0.03946,0.05919 -0.07892,0.118376 -0.03946,0.03946 -0.07892,0.07892 -0.03946,0.03946 -0.09865,0.05919 -0.03946,0.01973 -0.05919,0 -0.07892,-0.03946 -0.03946,-0.138105 0.01973,-0.09865 0.03946,-0.177564 0.01973,-0.07892 0.05919,-0.177563 -0.138105,0.03946 -0.157834,0.157834 -0.01973,0.09865 -0.118376,0.157834 -0.09865,-0.01973 -0.09865,-0.07892 0,-0.05919 0.01973,-0.157834 0.03946,-0.09865 0.07892,-0.217022 0.05919,-0.118376 0.09865,-0.217022 0.295939,-0.631337 0.493232,-1.242944 0.217022,-0.611608 0.434044,-1.242944 0.394585,-1.144298 0.8089,-2.268867 0.414315,-1.124568 0.927276,-2.249137 0.25648,-0.572149 0.512961,-1.124568 0.25648,-0.55242 0.53269,-1.124569 0.09865,-0.157834 0.177564,-0.295939 0.07892,-0.138105 0.177563,-0.295939 0.138105,-0.256481 0.414315,-0.315669 -0.03946,0.118376 -0.07892,0.236752 -0.03946,0.09865 -0.07892,0.217022 0.138104,-0.03946 0.177563,-0.09865 0.05919,-0.07892 0.118376,-0.138105 0.03946,-0.03946 0.05919,-0.09865 0.03946,-0.05919 0.09865,-0.01973 0.03946,0.01973 0.03946,0.177563 l 0.177564,-0.05919 q 0.295939,0.29594 0.07892,0.749713 -0.27621,0.512961 -0.512961,1.025922 -0.236751,0.493232 -0.473503,1.006193 -0.217022,0.453773 -0.394585,0.887817 -0.177564,0.434044 -0.374856,0.887818 -0.03946,0.138104 -0.09865,0.276209 -0.05919,0.118376 -0.118375,0.27621 -0.03946,0.07892 -0.07892,0.236751 h 0.05919 q 0.118376,-0.315668 0.236752,-0.611607 0.138105,-0.295939 0.25648,-0.611607 0.01973,0 0.03946,0.01973 -0.09865,0.25648 -0.217022,0.512961 -0.09865,0.25648 -0.197293,0.512961 l 0.03946,0.03946 q 0.118375,-0.118376 0.197292,-0.177564 0.887818,-0.848359 1.894011,-1.400778 0.53269,-0.295939 1.006192,-0.335398 0.493232,-0.03946 0.947006,0.138105 0.453773,0.177563 0.749712,0.53269 0.217022,0.236752 0.236751,0.532691 0.01973,0.295939 -0.01973,0.631336 -0.07892,0.572149 -0.335398,1.124569 -0.25648,0.53269 -0.591878,1.065381 -0.236751,0.355127 -0.493232,0.710254 -0.236751,0.335397 -0.552419,0.651066 z m -2.663452,-3.432894 q -0.217022,0.217022 -0.453774,0.434044 -0.217022,0.197293 -0.355126,0.473503 0,0 0.03946,0.03946 0.197293,-0.236751 0.394586,-0.453773 0.197292,-0.236751 0.414314,-0.453773 0,0 -0.03946,-0.03946 z m -0.572149,1.775635 q -0.01973,0 -0.03946,0 0,-0.01973 -0.01973,-0.01973 -0.138105,0.197293 -0.295939,0.394586 -0.138105,0.197293 -0.295939,0.414315 0.217022,-0.157835 0.335397,-0.374857 0.118376,-0.217022 0.315669,-0.414314 z m -0.493232,-0.55242 h 0.03946 q 0.03946,-0.07892 0.07892,-0.118376 h -0.05919 z m -0.177563,1.381049 q -0.197293,0.197293 -0.27621,0.335398 -0.05919,0.118375 -0.07892,0.25648 0.07892,-0.157834 0.197292,-0.295939 0.118376,-0.138105 0.157835,-0.295939 z m 1.913739,0.572149 q 0.473503,-0.355127 0.848359,-0.769442 0.374856,-0.434044 0.710254,-0.907546 0.631336,-0.927276 0.828629,-1.91374 0.01973,-0.118375 0.01973,-0.236751 0,-0.118376 -0.05919,-0.217022 -0.09865,0.03946 -0.177564,0.05919 -0.07892,0.01973 -0.157834,0.05919 -0.670795,0.315668 -1.164027,0.729983 -0.177564,0.157834 -0.374856,0.315668 -0.177564,0.157834 -0.355127,0.315669 l -0.01973,0.01973 h -0.01973 l 0.03946,-0.01973 q -0.05919,-0.05919 -0.118376,0 -0.03946,0.03946 -0.05919,0.05919 0,0.01973 -0.03946,0.05919 v -0.01973 q -1.223215,1.223215 -2.17022,2.70291 0.09865,-0.03946 0.118375,0.01973 0.01973,0.03946 0.03946,0.07892 0.05919,-0.05919 0.09865,-0.09865 0.05919,-0.05919 0.118376,-0.138105 0.05919,0.177564 0.09865,0.197293 0.03946,0.01973 0.197293,-0.03946 0.07892,0.07892 0.138105,0.118375 0.118375,0.138105 0.295939,0.177564 0.197293,0.01973 0.414315,-0.09865 0.197292,-0.09865 0.374856,-0.197292 0.197293,-0.118376 0.374856,-0.256481 z m 1.321861,-0.591878 q 0.217022,-0.27621 0.414315,-0.532691 0.217022,-0.25648 0.335398,-0.591878 -0.256481,0.01973 -0.355127,0.295939 -0.07892,0.217022 -0.217022,0.394586 -0.138105,0.177563 -0.295939,0.355127 -0.09865,0.138105 -0.217022,0.25648 -0.09865,0.118376 -0.197293,0.256481 0.03946,0.03946 0.03946,0.03946 0.138105,-0.118375 0.256481,-0.217022 0.118376,-0.118375 0.236751,-0.25648 z m 0.769442,-1.144298 q 0.09865,-0.177563 0.07892,-0.27621 h -0.07892 q 0.01973,0.138105 0,0.27621 z m 0.55242,0.8089 q -0.03946,0.07892 -0.09865,0.138105 -0.03946,0.05919 -0.07892,0.138105 -0.03946,0.05919 -0.07892,0.118376 -0.03946,0.05919 -0.09865,0.138105 0.27621,-0.27621 0.493232,-0.55242 0.217022,-0.295939 0.374856,-0.670795 -0.197293,0.157834 -0.217022,0.217022 -0.03946,0.138105 -0.118376,0.25648 -0.07892,0.09865 -0.177563,0.217022 z m -0.611608,0.07892 q 0.01973,0.01973 0.05919,0.01973 0.315668,-0.355127 0.572149,-0.848359 -0.01973,0 -0.03946,0 0,-0.01973 -0.01973,-0.01973 -0.157834,0.217022 -0.295939,0.434044 -0.118376,0.197292 -0.27621,0.414315 z m -2.150491,-1.499424 q 0,-0.03946 0,-0.05919 0.01973,-0.01973 0.01973,-0.03946 0.05919,-0.03946 0.09865,-0.05919 0.03946,-0.01973 0.07892,-0.03946 -0.07892,0.118375 -0.157834,0.197293 z m -1.755905,2.15049 q 0.01973,-0.03946 0.03946,-0.07892 0.03946,-0.05919 0.07892,-0.09865 0,0.01973 0.01973,0.01973 -0.03946,0.03946 -0.05919,0.07892 -0.01973,0.03946 -0.03946,0.07892 z m 0.868088,-1.144298 q 0.03946,-0.03946 0.03946,-0.05919 0.01973,-0.01973 0.05919,-0.05919 h 0.03946 q -0.03946,0.03946 -0.07892,0.07892 -0.01973,0.01973 -0.03946,0.05919 0,-0.01973 -0.01973,-0.01973 z"
       style="font-style:normal;font-variant:normal;font-weight:normal;font-stretch:normal;font-size:19.72927284px;font-family:'Parkway Lush';-inkscape-font-specification:'Parkway Lush';text-align:center;text-anchor:middle;fill:#eaeae3;fill-opacity:1;stroke-width:0.94821429"
       id="path2101"
       inkscape:connector-curvature="0" />
    <path
       d="m 49.910374,30.47489 q 0,0.01973 0.01973,0.03946 -0.03946,0.05919 -0.07892,0.118375 -0.01973,0.03946 -0.05919,0.07892 -0.118375,0.157835 -0.197293,0.197293 -0.05919,0.01973 -0.217022,-0.03946 -0.197292,-0.03946 -0.335397,-0.01973 -0.217022,0.01973 -0.374856,-0.157834 -0.256481,-0.315668 -0.217022,-0.729983 0.03946,-0.335398 0.07892,-0.651066 0.03946,-0.335398 0.07892,-0.670795 0,-0.07892 0.01973,-0.157834 0.01973,-0.07892 0.03946,-0.177564 -0.09865,0.01973 -0.157835,0.07892 -0.03946,0.05919 -0.07892,0.09865 -0.236751,0.236751 -0.493231,0.493231 -0.236752,0.236752 -0.493232,0.453774 -0.157834,0.157834 -0.335398,0.276209 -0.157834,0.118376 -0.335398,0.217022 -0.414314,0.256481 -0.828629,0.157835 -0.157834,-0.03946 -0.315668,-0.03946 -0.138105,-0.01973 -0.295939,-0.03946 -0.197293,-0.01973 -0.335398,-0.09865 -0.118376,-0.09865 -0.236751,-0.217022 -0.236752,-0.27621 -0.295939,-0.611607 -0.03946,-0.355127 0.01973,-0.749713 0.138105,-0.828629 0.493232,-1.598071 0.355127,-0.769441 0.907546,-1.519154 0.09865,-0.138105 0.197293,-0.236751 0.09865,-0.118376 0.217022,-0.217022 0.05919,-0.05919 0.138105,-0.09865 0.07892,-0.03946 0.177563,0 -0.05919,0.236751 -0.25648,0.453773 -0.177564,0.197293 -0.256481,0.473502 0.138105,-0.138104 0.256481,-0.25648 0.138105,-0.118376 0.25648,-0.236751 0.05919,-0.05919 0.09865,-0.118376 0.05919,-0.07892 0.118375,-0.138105 0.138105,-0.217022 0.295939,-0.01973 -0.157834,0.217022 -0.315668,0.473502 -0.138105,0.236752 -0.295939,0.473503 0.03946,0 0.03946,0.01973 0.177564,-0.217022 0.355127,-0.453773 0.177564,-0.236751 0.355127,-0.453773 0.177564,0.09865 0.197293,0.197292 0.01973,0.07892 -0.09865,0.236752 -0.03946,0.07892 -0.09865,0.138105 -0.03946,0.05919 -0.07892,0.118375 -0.03946,0.05919 -0.07892,0.118376 -0.01973,0.05919 -0.01973,0.118375 0.03946,-0.07892 0.09865,-0.138104 0.05919,-0.07892 0.118376,-0.157835 0.05919,-0.07892 0.118375,-0.157834 0.07892,-0.07892 0.118376,-0.157834 0.03946,0 0.05919,0.01973 -0.01973,0.03946 -0.01973,0.07892 0,0.01973 -0.01973,0.05919 -0.276209,0.394586 -0.493231,0.789171 -0.197293,0.394586 -0.414315,0.8089 0,0.07892 0,0.07892 0.05919,-0.07892 0.07892,-0.157834 l 0.118376,-0.177563 q 0.09865,-0.217022 0.217022,-0.414315 0.118375,-0.217022 0.25648,-0.434044 0.138105,-0.197293 0.315668,-0.355127 -0.434044,0.690525 -0.8089,1.381049 -0.374856,0.690525 -0.591878,1.440237 0.09865,-0.01973 0.157834,-0.07892 0.05919,-0.05919 0.118376,-0.09865 1.08511,-1.144298 2.130761,-2.308325 0.434044,-0.473503 0.848359,-0.947005 0.414315,-0.493232 0.8089,-0.966735 0.157834,-0.157834 0.414315,-0.315668 0.07892,-0.03946 0.157834,0 v 0.157834 q -0.07892,0.09865 -0.157834,0.295939 0.157834,-0.05919 0.217022,-0.138105 0.05919,-0.09865 0.157834,-0.157834 0.09865,-0.09865 0.157834,-0.05919 0.07892,0.01973 0.09865,0.118376 -0.01973,0.03946 -0.01973,0.05919 0,0 -0.01973,0.03946 0.157834,-0.05919 0.217022,-0.03946 0.05919,0 0.157834,0.118375 0.03946,0.03946 0.07892,0.09865 0.05919,0.03946 0.07892,0.09865 0.03946,0.177564 -0.118376,0.394586 -0.177564,0.335397 -0.355127,0.670795 -0.177563,0.335397 -0.355127,0.670795 -0.07892,0.118376 -0.157834,0.236751 -0.05919,0.118376 -0.118376,0.217022 -0.05919,0.05919 -0.05919,0.07892 -0.217022,0.710254 -0.473502,1.420508 -0.256481,0.690525 -0.355127,1.400778 -0.09865,0.335398 -0.118376,0.611608 -0.01973,0.07892 -0.01973,0.157834 0.01973,0.05919 0.01973,0.118376 0.03946,0.09865 0.03946,0.177563 0.01973,0.07892 0.05919,0.177564 z m -3.649916,-2.367513 h -0.01973 q 0,0.01973 -0.01973,0.03946 0,0 0,0.01973 h 0.03946 z m 1.164027,1.183757 q 0.177564,-0.118376 0.394586,-0.315669 0.217022,-0.197292 0.394585,-0.394585 0.197293,-0.197293 0.335398,-0.374856 0.157834,-0.177564 0.197293,-0.27621 -0.355127,0.374856 -0.670796,0.710254 -0.315668,0.315668 -0.651066,0.651066 z m 1.321862,-1.657259 q -0.138105,0.05919 -0.157834,0.217022 0.138104,-0.138105 0.177563,-0.197293 0,-0.01973 -0.01973,-0.01973 0,-0.01973 0,0 z m -2.387242,1.144298 q 0.118375,-0.03946 0.414314,-0.295939 0.29594,-0.256481 0.651066,-0.611608 0.374857,-0.374856 0.749713,-0.8089 0.394585,-0.434044 0.729983,-0.82863 0.355127,-0.394585 0.572149,-0.710253 0.236751,-0.315669 0.295939,-0.473503 0,0 -0.01973,0.01973 -0.82863,0.947005 -1.63753,1.874281 -0.8089,0.907547 -1.736176,1.795364 0,0 -0.01973,0.03946 z m 4.577191,-2.545077 q 0.177563,-0.394585 0.374856,-0.78917 0.197293,-0.394586 0.414315,-0.789171 h 0.07892 l -0.828629,1.598071 q -0.01973,-0.01973 -0.03946,-0.01973 z m -0.53269,1.242945 q 0.03946,-0.118376 0.03946,-0.157835 h 0.01973 q 0,0.03946 -0.03946,0.157835 z"
       style="font-style:normal;font-variant:normal;font-weight:normal;font-stretch:normal;font-size:19.72927284px;font-family:'Parkway Lush';-inkscape-font-specification:'Parkway Lush';text-align:center;text-anchor:middle;fill:#eaeae3;fill-opacity:1;stroke-width:0.94821429"
       id="path2103"
       inkscape:connector-curvature="0" />
    <path
       d="m 59.174499,25.04934 q 0,0.05919 -0.03946,0.138105 -0.138105,0.355127 -0.27621,0.710254 -0.138105,0.355127 -0.27621,0.690524 -0.177563,0.473503 -0.335397,0.947005 -0.157835,0.453774 -0.355127,0.907547 -0.177564,0.394585 -0.355127,0.789171 -0.177564,0.394585 -0.394586,0.789171 -0.335397,0.631337 -0.769441,1.223215 -0.434044,0.591878 -0.986464,1.144298 -0.118376,0.07892 -0.197293,0.197292 -0.09865,0.07892 -0.177563,0.157834 -0.05919,0.07892 -0.157834,0.157835 v 0.01973 -0.01973 q -0.03946,0.09865 -0.09865,0.157834 -0.05919,0.05919 -0.177563,0.07892 -0.09865,0 -0.177564,0.05919 -0.07892,0.03946 -0.177563,0.09865 -0.295939,0.197293 -0.591878,0.256481 -0.27621,0.03946 -0.572149,0 -0.848359,-0.118376 -1.578342,-0.414315 -0.493232,-0.197293 -1.006193,-0.512961 -0.03946,-0.03946 -0.118376,-0.05919 -0.05919,-0.03946 -0.03946,-0.138105 -0.01973,-0.01973 -0.05919,-0.01973 -0.01973,0 -0.03946,-0.01973 -0.236752,-0.118376 -0.256481,-0.394586 -0.01973,-0.03946 -0.03946,-0.07892 -0.01973,-0.03946 -0.03946,-0.07892 0.01973,-0.03946 0.118376,-0.138105 0.01973,0.03946 0.01973,0.118376 0.118375,-0.07892 0.217022,-0.07892 0.118375,-0.01973 0.236751,-0.01973 0.217022,0.01973 0.355127,0.118376 0.157834,0.09865 0.315668,0.157834 0.217022,0.07892 0.414315,0.157834 0.217022,0.07892 0.434044,0.157834 0.394586,0.118376 0.789171,0.01973 0.414315,-0.118376 0.8089,-0.394586 0.414315,-0.27621 0.729983,-0.591878 0.315669,-0.315668 0.591878,-0.710254 0.157835,-0.217022 0.29594,-0.453773 0.138104,-0.236751 0.295939,-0.453773 0.03946,-0.03946 0.03946,-0.05919 0.01973,-0.03946 0.05919,-0.118376 -0.157834,0.118376 -0.295939,0.217022 -0.138105,0.07892 -0.27621,0.177564 0.118376,-0.118376 0.197293,-0.177564 0.09865,-0.09865 0.197293,-0.177563 0.118375,-0.09865 0.217022,-0.197293 0.03946,-0.03946 0.07892,-0.09865 0.05919,-0.05919 0.09865,-0.09865 -0.03946,-0.03946 -0.03946,-0.03946 -0.25648,0.217022 -0.493231,0.434044 -0.236752,0.217022 -0.473503,0.434044 0.07892,-0.01973 0.197293,-0.05919 -0.07892,0.07892 -0.157834,0.138105 -0.05919,0.05919 -0.138105,0.118376 l -0.07892,-0.03946 q -0.138105,0.157834 -0.295939,0.27621 -0.157835,0.118375 -0.374857,0.177563 -0.03946,0.01973 -0.118375,0.03946 -0.05919,0 -0.09865,0.03946 -0.295939,0.197293 -0.552419,0.177564 -0.256481,-0.01973 -0.493232,-0.07892 -0.118376,-0.01973 -0.236751,-0.03946 -0.09865,-0.01973 -0.197293,-0.03946 -0.335398,-0.05919 -0.591878,-0.315669 -0.394586,-0.453773 -0.394586,-1.025922 0.01973,-0.572149 0.236752,-1.203486 0.374856,-1.025922 1.144297,-1.953198 0.197293,-0.217022 0.394586,-0.434044 0.197293,-0.236751 0.414315,-0.453773 0.05919,-0.07892 0.138104,-0.118375 0.07892,-0.05919 0.177564,-0.118376 0.01973,-0.01973 0.03946,-0.01973 0.03946,-0.01973 0.05919,-0.03946 0.05919,-0.157834 0.177564,-0.217022 0.118375,-0.05919 0.236751,-0.138105 0.157834,-0.118375 0.315668,-0.236751 0.157835,-0.138105 0.335398,-0.236751 0.394585,-0.236752 0.789171,-0.414315 0.394585,-0.197293 0.828629,-0.256481 0.236752,-0.03946 0.434044,0 0.217022,0.01973 0.414315,0.118376 0.118376,0.07892 0.236751,0.157834 0.138105,0.07892 0.256481,0.157834 0.05919,0.03946 0.177563,0.03946 0.157835,0.01973 0.177564,0.03946 0.01973,0.01973 0,0.177564 0,0.03946 0,0.07892 0.01973,0.01973 0.01973,0.07892 0.07892,-0.05919 0.118376,-0.09865 0.05919,-0.05919 0.09865,-0.09865 0.157834,-0.03946 0.177564,0.03946 0.01973,0.07892 0.03946,0.157834 0.03946,0.01973 0.09865,0.01973 0.05919,0 0.09865,0.03946 0.197293,0.217022 0.25648,0.591878 z m -3.25533,5.879323 q -0.118375,-0.07892 -0.197292,0.01973 -0.07892,0.07892 -0.177564,0.09865 0.118376,0.09865 0.157834,0.07892 0.05919,-0.01973 0.217022,-0.197293 z M 55.62323,28.521692 q 0.197293,-0.138105 0.374856,-0.315668 0.197293,-0.197293 0.335398,-0.374856 0.157834,-0.197293 0.256481,-0.355127 0.09865,-0.157835 0.09865,-0.256481 h -0.01973 q -0.197293,0.295939 -0.434044,0.55242 -0.236752,0.25648 -0.493232,0.512961 -0.03946,0.03946 -0.118376,0.09865 -0.05919,0.03946 0,0.138105 z m -0.01973,0 q -0.05919,0.01973 -0.118376,0.03946 -0.03946,0.01973 -0.03946,0.157834 0.03946,-0.07892 0.07892,-0.118376 0.03946,-0.03946 0.07892,-0.07892 z m -3.176413,-1.440237 q 0.394586,-0.27621 0.473503,-0.651066 -0.09865,0.177564 -0.256481,0.335398 -0.157834,0.138105 -0.217022,0.315668 z m 0.473503,-0.651066 q 0.118375,0.01973 0.197292,-0.09865 0.157835,-0.118376 0.27621,-0.236751 0.118376,-0.138105 0.256481,-0.256481 0.157834,-0.138105 0.315668,-0.27621 0.157834,-0.138105 0.335398,-0.27621 0.177563,-0.157834 0.374856,-0.295939 0.197293,-0.138105 0.414315,-0.295939 0.03946,-0.03946 0.09865,-0.03946 0.217022,-0.09865 0.355127,-0.236752 0.138105,-0.138105 0.295939,-0.295939 -0.03946,0 -0.07892,0.01973 -0.03946,0 -0.07892,0 -0.138105,0.03946 -0.27621,0.07892 -0.118376,0.03946 -0.236751,0.157834 -0.03946,0.03946 -0.09865,0.05919 -0.05919,0 -0.09865,0 -0.118376,0.138105 -0.217022,0.217022 -0.03946,0.03946 -0.118376,0.05919 -0.05919,0.01973 -0.09865,0.05919 -0.197293,0.157834 -0.414315,0.315669 -0.197292,0.157834 -0.355127,0.355127 -0.177563,0.197292 -0.374856,0.374856 -0.177563,0.177563 -0.27621,0.434044 -0.03946,0.05919 -0.197292,0.177563 z m 1.223215,0 q -0.138105,0.09865 -0.236752,0.197293 -0.09865,0.09865 -0.138105,0.25648 -0.03946,0.07892 -0.07892,0.118376 -0.27621,0.256481 -0.414314,0.611608 0.434044,-0.55242 0.907546,-1.045652 0.493232,-0.493232 1.025922,-0.947005 -0.03946,-0.03946 -0.07892,-0.03946 -0.03946,-0.01973 -0.07892,-0.05919 -0.157834,0.157834 -0.315668,0.295939 -0.138105,0.118375 -0.295939,0.25648 -0.01973,0.01973 -0.05919,0.03946 -0.01973,0.01973 0,0.03946 -0.01973,0.118376 -0.09865,0.177564 -0.07892,0.03946 -0.138104,0.09865 z m -1.006193,0.651066 q 0.217022,-0.236751 0.414314,-0.473502 0.217022,-0.236752 0.434044,-0.453774 0.256481,-0.25648 0.512961,-0.512961 0.256481,-0.27621 0.591879,-0.453773 0.05919,-0.03946 0.138105,-0.138105 0.01973,-0.01973 0.01973,-0.05919 0,-0.03946 0.01973,-0.07892 -0.197293,0.138105 -0.355127,0.256481 -0.157834,0.118375 -0.315668,0.217022 -0.335398,0.236751 -0.512961,0.493232 -0.09865,0.09865 -0.197293,0.217022 -0.07892,0.118375 -0.177563,0.217022 -0.177564,0.217022 -0.355127,0.414314 -0.177564,0.197293 -0.335398,0.394586 0,0.01973 0,0.01973 0.01973,0 0.01973,0.01973 0.05919,-0.03946 0.09865,-0.07892 z m 0.414314,2.209679 q 0.769442,-0.611608 1.440237,-1.262674 0.690525,-0.670795 1.242944,-1.459966 0.256481,-0.335398 0.493232,-0.690524 0.256481,-0.355127 0.493232,-0.690525 0.03946,-0.07892 0.07892,-0.138105 0.03946,-0.07892 -0.01973,-0.177563 -0.591878,0.138105 -1.124569,0.473502 -0.53269,0.335398 -1.045651,0.729983 0.138105,-0.197292 0.315668,-0.315668 0.197293,-0.138105 0.355127,-0.315668 -0.217022,0.138104 -0.434044,0.25648 -0.197293,0.118376 -0.374856,0.27621 -0.453773,0.394585 -0.868088,0.848359 -0.414315,0.434044 -0.729983,0.947005 -0.27621,0.434044 -0.473503,0.868088 -0.177563,0.434044 -0.217022,0.887817 -0.01973,0.05919 -0.01973,0.118376 0.01973,0.03946 0.03946,0.118375 0.512961,-0.197292 0.848358,-0.473502 z m 0.453774,0.157834 q 0.453773,-0.335398 0.868088,-0.710254 0.414314,-0.374856 0.8089,-0.8089 0.157834,-0.177564 0.295939,-0.335398 0.157834,-0.177563 0.315668,-0.355127 0.07892,-0.118375 0.157834,-0.295939 -0.03946,-0.03946 -0.03946,-0.03946 -0.157834,0.07892 -0.217022,0.138105 -0.217022,0.236751 -0.414315,0.473502 -0.197293,0.217022 -0.394585,0.473503 -0.335398,0.394585 -0.729983,0.749712 -0.374857,0.335398 -0.769442,0.670795 -0.05919,0.05919 -0.118376,0.118376 -0.05919,0.03946 -0.118375,0.09865 0.01973,0 0.01973,0.03946 0.09865,-0.05919 0.177563,-0.09865 0.07892,-0.05919 0.157835,-0.118376 z m 1.223215,0 q 0.25648,-0.197293 0.473502,-0.394586 0.236751,-0.197292 0.453773,-0.453773 -0.01973,0 -0.03946,0 0,-0.01973 -0.01973,-0.01973 -0.217022,0.217022 -0.453774,0.434044 -0.236751,0.197293 -0.453773,0.414315 0.01973,0 0.03946,0.01973 z m 0.157834,1.124568 q -0.138105,0.157835 -0.138105,0.197293 0,0.01973 0.118375,0.05919 0.01973,-0.09865 0.01973,-0.256481 z M 54.7946,31.500812 q 0.09865,-0.138105 0.177563,-0.25648 0.09865,-0.138105 0.27621,-0.197293 0.01973,-0.01973 0.09865,-0.118376 -0.217022,0.01973 -0.394585,0.177564 -0.157834,0.138105 -0.27621,0.27621 -0.157834,0.157834 -0.295939,0.315668 -0.118376,0.138105 -0.27621,0.236751 -0.07892,0.07892 -0.157834,0.157834 -0.07892,0.05919 -0.177563,0.157835 0.335397,-0.118376 0.572149,-0.295939 0.236751,-0.177564 0.453773,-0.453774 z m 0.236751,0.355127 q 0.09865,-0.03946 0.118376,-0.07892 0.118375,-0.118376 0.236751,-0.217022 0.118376,-0.118376 0.177563,-0.27621 -0.217022,0.07892 -0.295939,0.256481 -0.07892,0.177563 -0.295939,0.236751 0.07892,0.07892 0.05919,0.07892 z m 0.138105,0.512961 q 0.197293,-0.138105 0.295939,-0.25648 0.157834,-0.157834 0.295939,-0.295939 0.138105,-0.157835 0.236751,-0.335398 -0.07892,0.05919 -0.157834,0.138105 -0.05919,0.05919 -0.138105,0.118376 -0.07892,0.07892 -0.177563,0.157834 -0.07892,0.05919 -0.177564,0.138105 0.01973,0.138105 -0.09865,0.197292 -0.09865,0.03946 -0.197293,0.07892 0.01973,0.157835 0.118376,0.05919 z m 0.848359,-0.927276 q 0.118375,-0.05919 0.07892,-0.157834 -0.03946,0.03946 -0.03946,0.07892 0,0.03946 -0.03946,0.07892 z m -0.611608,1.10484 q 0.197293,-0.217022 0.394586,-0.434044 0.197292,-0.236752 0.394585,-0.453774 0.03946,-0.01973 0.07892,-0.01973 0.03946,-0.01973 0.07892,-0.03946 -0.157834,0.157834 -0.315668,0.335397 -0.138105,0.177564 -0.295939,0.335398 -0.157834,0.157834 -0.335398,0.27621 z m -0.394585,-2.584535 q 0,-0.01973 0.01973,-0.01973 0,0 -0.01973,0.01973 z m 0,2.880474 q -0.07892,0.157834 -0.157834,0.05919 0.118375,-0.03946 0.157834,-0.05919 z m 1.440237,-1.459966 q -0.01973,0.05919 -0.03946,0.118375 -0.01973,0.03946 -0.05919,0.09865 0.01973,-0.118376 0.07892,-0.217022 z"
       style="font-style:normal;font-variant:normal;font-weight:normal;font-stretch:normal;font-size:19.72927284px;font-family:'Parkway Lush';-inkscape-font-specification:'Parkway Lush';text-align:center;text-anchor:middle;fill:#eaeae3;fill-opacity:1;stroke-width:0.94821429"
       id="path2105"
       inkscape:connector-curvature="0" />
  </g>
  <rect
     ry="4.5000472"
     rx="4.5000472"
     y="3.0047913"
     x="13"
     height="9.0000944"
     width="19"
     id="rect1694"
     style="opacity:1;fill:#000000;fill-opacity:0.37647059;stroke:none;stroke-width:1.24348032;stroke-linecap:round;stroke-linejoin:round;stroke-miterlimit:4;stroke-dasharray:none;stroke-dashoffset:0;stroke-opacity:1" />
  <rect
     style="opacity:1;fill:#000000;fill-opacity:0.37647059;stroke:none;stroke-width:1.24348032;stroke-linecap:round;stroke-linejoin:round;stroke-miterlimit:4;stroke-dasharray:none;stroke-dashoffset:0;stroke-opacity:1"
     id="rect1760"
     width="19"
     height="9.0000944"
     x="13"
     y="368.00479"
     rx="4.5000472"
     ry="4.5000472" />
  <rect
     style="opacity:1;fill:#000000;fill-opacity:0.37647059;stroke:none;stroke-width:1.24348032;stroke-linecap:round;stroke-linejoin:round;stroke-miterlimit:4;stroke-dasharray:none;stroke-dashoffset:0;stroke-opacity:1"
     id="rect1782"
     width="19"
     height="9.0000944"
     x="43"
     y="368.00479"
     rx="4.5000472"
     ry="4.5000472" />
  <rect
     ry="4.5000472"
     rx="4.5000472"
     y="3.0047913"
     x="43"
     height="9.0000944"
     width="19"
     id="rect1716"
     style="opacity:1;fill:#000000;fill-opacity:0.37647059;stroke:none;stroke-width:1.24348032;stroke-linecap:round;stroke-linejoin:round;stroke-miterlimit:4;stroke-dasharray:none;stroke-dashoffset:0;stroke-opacity:1" />
</svg>
